<svg width="64" height="64" viewBox="0 0 64 64" fill="none" xmlns="http://www.w3.org/2000/svg">
<g clip-path="url(#clip0_21_6)">
<path d="M50.6667 16H13.3333C10.3878 16 8 18.3878 8 21.3333V48C8 50.9455 10.3878 53.3333 13.3333 53.3333H50.6667C53.6122 53.3333 56 50.9455 56 48V21.3333C56 18.3878 53.6122 16 50.6667 16Z" fill="#38BDF8"/>
<path d="M26.6667 10.6667H10.6667C9.19391 10.6667 8 11.8606 8 13.3333V18.6667C8 20.1394 9.19391 21.3333 10.6667 21.3333H26.6667C28.1394 21.3333 29.3333 20.1394 29.3333 18.6667V13.3333C29.3333 11.8606 28.1394 10.6667 26.6667 10.6667Z" fill="#38BDF8"/>
</g>
<defs>
<clipPath id="clip0_21_6">
<rect width="64" height="64" fill="white"/>
</clipPath>
</defs>
</svg>
